<svg width="24" height="24" viewBox="0 0 24 24" fill="none" xmlns="http://www.w3.org/2000/svg">
<g clip-path="url(#clip0_1743_86)">
<path fill-rule="evenodd" clip-rule="evenodd" d="M1.59998 10.3936C1.60167 7.63646 2.69813 4.99282 4.64833 3.04383C6.59852 1.09483 9.24283 -5.22062e-07 12 0C17.7424 0 22.4 4.6544 22.4 10.3936C22.4 14.672 20.2592 18.0624 17.9648 20.3536C16.9491 21.3706 15.8126 22.2594 14.5808 23C14.0656 23.304 13.584 23.544 13.1648 23.7072C12.7696 23.864 12.3552 23.9856 12 23.9856C11.6448 23.9856 11.2304 23.864 10.8352 23.7072C10.3459 23.5078 9.87253 23.2714 9.41918 23C8.18735 22.2594 7.05088 21.3706 6.03518 20.3536C3.74078 18.0624 1.59998 14.672 1.59998 10.3936Z" fill="#00555A"/>
<path d="M11.5469 17.1562C10.5703 17.1562 9.71875 16.8516 9.14062 16.3984V13.9688H9.17188C9.78906 15.6406 10.6328 16.4062 11.5312 16.4219C12.5703 16.4297 13.25 15.4531 13.25 14.1094C13.25 12.75 12.4922 11.8281 11.5625 11.8281C11.1172 11.8281 11.0312 11.8281 10.9219 11.8438V11.1328C11.0312 11.1406 11.1172 11.1406 11.5625 11.1406C12.6797 11.1406 13.3828 10.1719 13.3828 8.79688C13.3828 7.35156 12.6797 6.38281 11.5625 6.38281C10.5859 6.38281 9.58594 7.30469 8.9375 9.00781H8.90625V6.59375C9.45312 6.03906 10.3516 5.66406 11.5781 5.64844C13.5547 5.625 14.9688 6.90625 14.9688 8.65625C14.9688 9.97656 14.1641 11.0391 12.9844 11.4688C14.0703 11.8906 14.7969 12.8828 14.7969 14.1172C14.7969 15.8906 13.4453 17.1562 11.5469 17.1562Z" fill="white"/>
</g>
<defs>
<clipPath id="clip0_1743_86">
<rect width="24" height="24" fill="white"/>
</clipPath>
</defs>
</svg>
