<svg width="24" height="24" viewBox="0 0 24 24" fill="none" xmlns="http://www.w3.org/2000/svg">
<g clip-path="url(#clip0_1743_11)">
<path fill-rule="evenodd" clip-rule="evenodd" d="M1.59998 10.3936C1.60167 7.63646 2.69813 4.99282 4.64833 3.04383C6.59852 1.09483 9.24283 -5.22062e-07 12 0C17.7424 0 22.4 4.6544 22.4 10.3936C22.4 14.672 20.2592 18.0624 17.9648 20.3536C16.9491 21.3706 15.8126 22.2594 14.5808 23C14.0656 23.304 13.584 23.544 13.1648 23.7072C12.7696 23.864 12.3552 23.9856 12 23.9856C11.6448 23.9856 11.2304 23.864 10.8352 23.7072C10.3459 23.5078 9.87253 23.2714 9.41918 23C8.18735 22.2594 7.05088 21.3706 6.03518 20.3536C3.74078 18.0624 1.59998 14.672 1.59998 10.3936Z" fill="#00555A"/>
<path d="M10.6562 17V16.9688C11.1094 16.5312 11.2422 16.0312 11.2422 15.1094V7.92969C11.2422 7.36719 11.1016 7.02344 10.5547 6.85156V6.78125L12.6641 5.67188H12.7578V15.1094C12.7578 16.0312 12.8828 16.5312 13.3438 16.9688V17H10.6562Z" fill="white"/>
</g>
<defs>
<clipPath id="clip0_1743_11">
<rect width="24" height="24" fill="white"/>
</clipPath>
</defs>
</svg>
