<svg width="24" height="24" viewBox="0 0 24 24" fill="none" xmlns="http://www.w3.org/2000/svg">
<g clip-path="url(#clip0_1743_19)">
<path fill-rule="evenodd" clip-rule="evenodd" d="M1.59998 10.3936C1.60167 7.63646 2.69813 4.99282 4.64833 3.04383C6.59852 1.09483 9.24283 -5.22062e-07 12 0C17.7424 0 22.4 4.6544 22.4 10.3936C22.4 14.672 20.2592 18.0624 17.9648 20.3536C16.9491 21.3706 15.8126 22.2594 14.5808 23C14.0656 23.304 13.584 23.544 13.1648 23.7072C12.7696 23.864 12.3552 23.9856 12 23.9856C11.6448 23.9856 11.2304 23.864 10.8352 23.7072C10.3459 23.5078 9.87253 23.2714 9.41918 23C8.18735 22.2594 7.05088 21.3706 6.03518 20.3536C3.74078 18.0624 1.59998 14.672 1.59998 10.3936Z" fill="#00555A"/>
<path d="M8.8125 17C12.6094 10.8594 13.4688 9.625 13.4688 8.1875C13.4688 7.10156 12.9609 6.38281 11.8984 6.38281C10.8438 6.38281 9.78125 7.29688 9.09375 9H9.0625V6.59375C9.5625 6.10938 10.6875 5.64844 11.8203 5.64844C13.8281 5.64844 15.0781 6.64844 15.0625 8.41406C15.0547 9.55469 14.6406 10.4375 12.9766 12.5625L10.5391 15.6719H13.2656C14.1875 15.6719 14.6875 15.5469 15.125 15.0859H15.1562V17H8.8125Z" fill="white"/>
</g>
<defs>
<clipPath id="clip0_1743_19">
<rect width="24" height="24" fill="white"/>
</clipPath>
</defs>
</svg>
