<svg width="40" height="40" viewBox="0 0 40 40" fill="none" xmlns="http://www.w3.org/2000/svg">
<path d="M19.9734 8.75C13.8843 8.75 7.63823 12.2742 2.72105 19.3227C2.58069 19.5261 2.50378 19.7665 2.50002 20.0136C2.49627 20.2607 2.56584 20.5034 2.69995 20.7109C6.47808 26.625 12.6406 31.25 19.9734 31.25C27.2265 31.25 33.5156 26.6109 37.3007 20.6836C37.4317 20.4801 37.5014 20.2432 37.5014 20.0012C37.5014 19.7592 37.4317 19.5223 37.3007 19.3187C33.507 13.4594 27.1718 8.75 19.9734 8.75Z" stroke="#FCF8F5" stroke-width="2.5" stroke-linecap="round" stroke-linejoin="round"/>
<path d="M20 26.25C23.4518 26.25 26.25 23.4518 26.25 20C26.25 16.5482 23.4518 13.75 20 13.75C16.5482 13.75 13.75 16.5482 13.75 20C13.75 23.4518 16.5482 26.25 20 26.25Z" stroke="#FCFF7F" stroke-width="2.5" stroke-miterlimit="10"/>
</svg>
