<?xml version="1.0" encoding="UTF-8"?>
<svg id="Layer_2" xmlns="http://www.w3.org/2000/svg" viewBox="0 0 139.28 72.09">
  <defs>
    <style>
      .cls-1 {
        fill: #f9f1ec;
        stroke-width: 0px;
      }
    </style>
  </defs>
  <g id="Layer_1-2">
    <path class="cls-1" d="M138.18,0H1.1C.32,0-.21.79.08,1.51l28.95,69.9c.17.41.57.68,1.01.68h79.18c.44,0,.84-.27,1.01-.68L139.2,1.51c.3-.72-.23-1.51-1.01-1.51ZM78.48,40.9l2.65-6.41c1.02-2.45,3.41-4.05,6.06-4.05h20.66c.39,0,.65.4.5.75l-2.66,6.41c-1.02,2.45-3.41,4.05-6.06,4.05h-20.66c-.39,0-.65-.4-.5-.75ZM42.79,48.75l-5.4,13.03c-.19.45-.82.45-1.01,0L15.18,10.6c-.15-.36.12-.76.51-.76h6.95c2.65,0,5.04,1.6,6.05,4.04l14.1,34.03c.11.27.11.57,0,.83ZM65.08,48.75l-5.39,13.03c-.19.45-.82.45-1.01,0L37.48,10.6c-.15-.36.12-.75.5-.75h6.95c2.65,0,5.04,1.6,6.05,4.04l14.1,34.03c.11.27.11.57,0,.83ZM59.77,10.59c-.15-.36.11-.75.5-.75h11.09c4.68,0,7.86,4.76,6.07,9.09l-6.6,15.94c-.19.45-.82.45-1.01,0l-10.05-24.27ZM108.41,51.79l-2.65,6.4c-1.02,2.46-3.41,4.06-6.07,4.06h-29.23c-.39,0-.66-.4-.51-.76l2.65-6.4c1.02-2.46,3.41-4.06,6.07-4.06h29.23c.39,0,.66.4.51.76ZM125.46,10.6l-2.65,6.4c-1.02,2.46-3.41,4.06-6.07,4.06h-29.22c-.39,0-.66-.4-.51-.76l2.65-6.4c1.02-2.46,3.41-4.06,6.07-4.06h29.22c.39,0,.66.4.51.76Z"/>
  </g>
</svg>
