<svg width="23" height="21" viewBox="0 0 23 21" fill="none" xmlns="http://www.w3.org/2000/svg">
<path d="M15 0.643555H14.25C13.8522 0.643555 13.4706 0.80159 13.1893 1.08289C12.908 1.3642 12.75 1.74573 12.75 2.14355V7.39355H5.175C5.00096 6.5471 4.54041 5.78653 3.87097 5.24005C3.20154 4.69357 2.36416 4.39461 1.5 4.39355C1.30109 4.39355 1.11032 4.47257 0.96967 4.61322C0.829018 4.75388 0.75 4.94464 0.75 5.14355C0.75 5.34247 0.829018 5.53323 0.96967 5.67388C1.11032 5.81454 1.30109 5.89355 1.5 5.89355C2.09674 5.89355 2.66903 6.13061 3.09099 6.55256C3.51295 6.97452 3.75 7.54682 3.75 8.14355C3.75223 10.132 4.54313 12.0384 5.94917 13.4444C7.3552 14.8504 9.26156 15.6413 11.25 15.6436H15C16.9891 15.6436 18.8968 14.8534 20.3033 13.4469C21.7098 12.0403 22.5 10.1327 22.5 8.14355C22.5 6.15443 21.7098 4.24678 20.3033 2.84025C18.8968 1.43373 16.9891 0.643555 15 0.643555ZM20.9513 7.39355H15.6384L19.5628 4.25387C20.3228 5.14207 20.8055 6.2337 20.9513 7.39355ZM15 2.14355C16.2315 2.1424 17.4331 2.52263 18.4397 3.23199L14.25 6.58262V2.14355H15ZM15 14.1436H11.25C9.78907 14.1418 8.37883 13.6078 7.28311 12.6415C6.1874 11.6752 5.48129 10.3428 5.29688 8.89355H20.9531C20.7687 10.3428 20.0626 11.6752 18.9669 12.6415C17.8712 13.6078 16.4609 14.1418 15 14.1436ZM9.75 18.6436C9.75 18.9402 9.66203 19.2302 9.4972 19.4769C9.33238 19.7236 9.09811 19.9158 8.82403 20.0294C8.54994 20.1429 8.24834 20.1726 7.95736 20.1147C7.66639 20.0569 7.39912 19.914 7.18934 19.7042C6.97956 19.4944 6.8367 19.2272 6.77882 18.9362C6.72094 18.6452 6.75065 18.3436 6.86418 18.0695C6.97771 17.7954 7.16997 17.5612 7.41665 17.3964C7.66332 17.2315 7.95333 17.1436 8.25 17.1436C8.64782 17.1436 9.02936 17.3016 9.31066 17.5829C9.59196 17.8642 9.75 18.2457 9.75 18.6436ZM19.5 18.6436C19.5 18.9402 19.412 19.2302 19.2472 19.4769C19.0824 19.7236 18.8481 19.9158 18.574 20.0294C18.2999 20.1429 17.9983 20.1726 17.7074 20.1147C17.4164 20.0569 17.1491 19.914 16.9393 19.7042C16.7296 19.4944 16.5867 19.2272 16.5288 18.9362C16.4709 18.6452 16.5006 18.3436 16.6142 18.0695C16.7277 17.7954 16.92 17.5612 17.1666 17.3964C17.4133 17.2315 17.7033 17.1436 18 17.1436C18.3978 17.1436 18.7794 17.3016 19.0607 17.5829C19.342 17.8642 19.5 18.2457 19.5 18.6436Z" fill="#00555A"/>
</svg>
