<svg width="7" height="13" viewBox="0 0 7 13" fill="none" xmlns="http://www.w3.org/2000/svg">
<path d="M1.35403 1.28977L6.35403 6.28977C6.40052 6.33621 6.4374 6.39135 6.46256 6.45205C6.48772 6.51275 6.50067 6.57781 6.50067 6.64352C6.50067 6.70923 6.48772 6.77429 6.46256 6.83499C6.4374 6.89569 6.40052 6.95083 6.35403 6.99727L1.35403 11.9973C1.26021 12.0911 1.13296 12.1438 1.00028 12.1438C0.867596 12.1438 0.740348 12.0911 0.646528 11.9973C0.552707 11.9035 0.5 11.7762 0.5 11.6435C0.5 11.5108 0.552707 11.3836 0.646528 11.2898L5.2934 6.64352L0.646528 1.99727C0.600073 1.95082 0.563222 1.89567 0.538081 1.83497C0.51294 1.77427 0.5 1.70922 0.5 1.64352C0.5 1.57782 0.51294 1.51277 0.538081 1.45207C0.563222 1.39138 0.600073 1.33623 0.646528 1.28977C0.692983 1.24331 0.748133 1.20647 0.80883 1.18132C0.869526 1.15618 0.934581 1.14324 1.00028 1.14324C1.06598 1.14324 1.13103 1.15618 1.19173 1.18132C1.25242 1.20647 1.30757 1.24331 1.35403 1.28977Z" fill="#7D7976" stroke="#7D7976" stroke-width="0.5"/>
</svg>
