<svg width="22" height="19" viewBox="0 0 22 19" fill="none" xmlns="http://www.w3.org/2000/svg">
<path d="M5.75 10.1436H2C1.80109 10.1436 1.61032 10.0645 1.46967 9.92388C1.32902 9.78323 1.25 9.59247 1.25 9.39355C1.25 9.19464 1.32902 9.00388 1.46967 8.86322C1.61032 8.72257 1.80109 8.64355 2 8.64355H5.34875L6.62562 6.7273C6.69409 6.62443 6.78691 6.54006 6.89584 6.48171C7.00477 6.42336 7.12643 6.39282 7.25 6.39282C7.37357 6.39282 7.49523 6.42336 7.60416 6.48171C7.71309 6.54006 7.80591 6.62443 7.87438 6.7273L10.25 10.2898L11.1256 8.9773C11.1942 8.87456 11.287 8.79034 11.396 8.73212C11.5049 8.6739 11.6265 8.64347 11.75 8.64355H14C14.1989 8.64355 14.3897 8.72257 14.5303 8.86322C14.671 9.00388 14.75 9.19464 14.75 9.39355C14.75 9.59247 14.671 9.78323 14.5303 9.92388C14.3897 10.0645 14.1989 10.1436 14 10.1436H12.1512L10.8744 12.0598C10.8059 12.1627 10.7131 12.247 10.6042 12.3054C10.4952 12.3638 10.3736 12.3943 10.25 12.3943C10.1264 12.3943 10.0048 12.3638 9.89584 12.3054C9.78691 12.247 9.69409 12.1627 9.62562 12.0598L7.25 8.49543L6.37438 9.80793C6.30604 9.91102 6.21328 9.99561 6.10434 10.0542C5.99541 10.1127 5.87368 10.1434 5.75 10.1436ZM15.6875 0.393555C13.7516 0.393555 12.0566 1.22605 11 2.63324C9.94344 1.22605 8.24844 0.393555 6.3125 0.393555C4.77146 0.395292 3.29404 1.00824 2.20436 2.09791C1.11468 3.18759 0.501737 4.66502 0.5 6.20605V6.41699C0.506216 6.6159 0.591195 6.8042 0.736243 6.94046C0.88129 7.07671 1.07453 7.14977 1.27344 7.14355C1.47235 7.13734 1.66065 7.05236 1.7969 6.90731C1.93316 6.76226 2.00622 6.56903 2 6.37012V6.20605C2.00149 5.06277 2.45632 3.96673 3.26475 3.1583C4.07317 2.34987 5.16921 1.89504 6.3125 1.89355C8.13594 1.89355 9.66687 2.8648 10.3062 4.4248C10.3628 4.56236 10.4589 4.68002 10.5824 4.76282C10.7059 4.84562 10.8513 4.88983 11 4.88983C11.1487 4.88983 11.2941 4.84562 11.4176 4.76282C11.5411 4.68002 11.6372 4.56236 11.6937 4.4248C12.3331 2.86199 13.8641 1.89355 15.6875 1.89355C16.8308 1.89504 17.9268 2.34987 18.7353 3.1583C19.5437 3.96673 19.9985 5.06277 20 6.20605C20 11.232 12.71 15.7826 11 16.7811C9.98469 16.1895 7.00344 14.3436 4.74875 11.8864C4.68215 11.8137 4.60189 11.7549 4.51255 11.7133C4.42322 11.6717 4.32657 11.6481 4.22811 11.6438C4.12965 11.6395 4.03131 11.6547 3.93872 11.6884C3.84612 11.7222 3.76107 11.7738 3.68844 11.8404C3.6158 11.907 3.55699 11.9873 3.51537 12.0766C3.47375 12.166 3.45014 12.2626 3.44587 12.3611C3.44161 12.4595 3.45677 12.5579 3.49051 12.6505C3.52425 12.7431 3.5759 12.8281 3.6425 12.9007C6.56469 16.0882 10.4797 18.2145 10.6447 18.3036C10.7539 18.3623 10.876 18.3931 11 18.3931C11.124 18.3931 11.2461 18.3623 11.3553 18.3036C11.7697 18.0804 21.5 12.7686 21.5 6.20605C21.4983 4.66502 20.8853 3.18759 19.7956 2.09791C18.706 1.00824 17.2285 0.395292 15.6875 0.393555Z" fill="#00555A"/>
</svg>
