<svg width="24" height="19" viewBox="0 0 24 19" fill="none" xmlns="http://www.w3.org/2000/svg">
<path d="M18 8.51855C18 8.74106 17.934 8.95857 17.8104 9.14357C17.6868 9.32858 17.5111 9.47277 17.3055 9.55792C17.1 9.64307 16.8738 9.66535 16.6555 9.62194C16.4373 9.57853 16.2368 9.47138 16.0795 9.31405C15.9222 9.15672 15.815 8.95626 15.7716 8.73803C15.7282 8.5198 15.7505 8.2936 15.8356 8.08804C15.9208 7.88247 16.065 7.70677 16.25 7.58315C16.435 7.45953 16.6525 7.39355 16.875 7.39355C17.1734 7.39355 17.4595 7.51208 17.6705 7.72306C17.8815 7.93404 18 8.22019 18 8.51855ZM14.25 3.64355H10.5C10.3011 3.64355 10.1103 3.72257 9.96967 3.86322C9.82902 4.00388 9.75 4.19464 9.75 4.39355C9.75 4.59247 9.82902 4.78323 9.96967 4.92388C10.1103 5.06454 10.3011 5.14355 10.5 5.14355H14.25C14.4489 5.14355 14.6397 5.06454 14.7803 4.92388C14.921 4.78323 15 4.59247 15 4.39355C15 4.19464 14.921 4.00388 14.7803 3.86322C14.6397 3.72257 14.4489 3.64355 14.25 3.64355ZM23.25 8.14355V11.1436C23.25 11.7403 23.0129 12.3126 22.591 12.7345C22.169 13.1565 21.5967 13.3936 21 13.3936H20.7788L19.2591 17.6479C19.155 17.9393 18.9634 18.1914 18.7105 18.3697C18.4575 18.5479 18.1557 18.6436 17.8463 18.6436H16.6538C16.3443 18.6436 16.0425 18.5479 15.7895 18.3697C15.5366 18.1914 15.345 17.9393 15.2409 17.6479L15.0609 17.1436H9.68906L9.50906 17.6479C9.40502 17.9393 9.2134 18.1914 8.96047 18.3697C8.70754 18.5479 8.40568 18.6436 8.09625 18.6436H6.90375C6.59433 18.6436 6.29246 18.5479 6.03953 18.3697C5.7866 18.1914 5.59498 17.9393 5.49094 17.6479L4.3125 14.3517C3.19142 13.0829 2.48945 11.4988 2.3025 9.81605C2.06046 9.94318 1.85777 10.134 1.71633 10.368C1.57489 10.602 1.50009 10.8702 1.5 11.1436C1.5 11.3425 1.42098 11.5332 1.28033 11.6739C1.13968 11.8145 0.948912 11.8936 0.75 11.8936C0.551088 11.8936 0.360322 11.8145 0.21967 11.6739C0.0790176 11.5332 0 11.3425 0 11.1436C0.00114598 10.4747 0.225771 9.82543 0.638188 9.29887C1.05061 8.7723 1.62716 8.39866 2.27625 8.2373C2.4438 6.17042 3.38252 4.24214 4.90601 2.83536C6.42951 1.42858 8.42634 0.646188 10.5 0.643555H20.25C20.4489 0.643555 20.6397 0.722572 20.7803 0.863225C20.921 1.00388 21 1.19464 21 1.39355C21 1.59247 20.921 1.78323 20.7803 1.92388C20.6397 2.06454 20.4489 2.14355 20.25 2.14355H18.2447C19.4894 3.01683 20.4683 4.21733 21.0731 5.6123C21.1134 5.70605 21.1528 5.7998 21.1903 5.89355C21.7535 5.94136 22.278 6.19935 22.6596 6.61624C23.0413 7.03313 23.252 7.57837 23.25 8.14355ZM21.75 8.14355C21.75 7.94464 21.671 7.75388 21.5303 7.61322C21.3897 7.47257 21.1989 7.39355 21 7.39355H20.6569C20.4971 7.39372 20.3415 7.34289 20.2127 7.24846C20.0839 7.15403 19.9885 7.02093 19.9406 6.86856C19.5109 5.49731 18.6542 4.29926 17.4956 3.44926C16.337 2.59925 14.937 2.14176 13.5 2.14355H10.5C9.19005 2.14349 7.90838 2.52458 6.81128 3.24038C5.71419 3.95617 4.84907 4.97572 4.32143 6.17471C3.79379 7.3737 3.62643 8.70031 3.83975 9.99278C4.05308 11.2852 4.63787 12.4877 5.52281 13.4536C5.59048 13.5271 5.64276 13.6135 5.67656 13.7076L6.90375 17.1436H8.09625L8.45438 16.1414C8.50637 15.9957 8.60211 15.8697 8.72848 15.7806C8.85485 15.6915 9.00568 15.6436 9.16031 15.6436H15.5897C15.7443 15.6436 15.8951 15.6915 16.0215 15.7806C16.1479 15.8697 16.2436 15.9957 16.2956 16.1414L16.6538 17.1436H17.8463L19.5441 12.3914C19.5961 12.2457 19.6918 12.1197 19.8182 12.0306C19.9445 11.9415 20.0954 11.8936 20.25 11.8936H21C21.1989 11.8936 21.3897 11.8145 21.5303 11.6739C21.671 11.5332 21.75 11.3425 21.75 11.1436V8.14355Z" fill="#00555A"/>
</svg>
