<svg width="22" height="16" viewBox="0 0 22 16" fill="none" xmlns="http://www.w3.org/2000/svg">
<path d="M8.25 6.14355C8.25 5.94464 8.32902 5.75388 8.46967 5.61322C8.61032 5.47257 8.80109 5.39355 9 5.39355H16.5C16.6989 5.39355 16.8897 5.47257 17.0303 5.61322C17.171 5.75388 17.25 5.94464 17.25 6.14355C17.25 6.34247 17.171 6.53323 17.0303 6.67388C16.8897 6.81454 16.6989 6.89355 16.5 6.89355H9C8.80109 6.89355 8.61032 6.81454 8.46967 6.67388C8.32902 6.53323 8.25 6.34247 8.25 6.14355ZM9 9.89355H16.5C16.6989 9.89355 16.8897 9.81454 17.0303 9.67389C17.171 9.53323 17.25 9.34247 17.25 9.14355C17.25 8.94464 17.171 8.75388 17.0303 8.61322C16.8897 8.47257 16.6989 8.39355 16.5 8.39355H9C8.80109 8.39355 8.61032 8.47257 8.46967 8.61322C8.32902 8.75388 8.25 8.94464 8.25 9.14355C8.25 9.34247 8.32902 9.53323 8.46967 9.67389C8.61032 9.81454 8.80109 9.89355 9 9.89355ZM21.75 1.64355V12.8936C21.75 13.4903 21.5129 14.0626 21.091 14.4845C20.669 14.9065 20.0967 15.1436 19.5 15.1436H3C2.40505 15.1436 1.83431 14.9079 1.41264 14.4882C0.990983 14.0685 0.752727 13.4988 0.75 12.9039V3.89355C0.75 3.69464 0.829018 3.50388 0.96967 3.36322C1.11032 3.22257 1.30109 3.14355 1.5 3.14355C1.69891 3.14355 1.88968 3.22257 2.03033 3.36322C2.17098 3.50388 2.25 3.69464 2.25 3.89355V12.8936C2.25 13.0925 2.32902 13.2832 2.46967 13.4239C2.61032 13.5645 2.80109 13.6436 3 13.6436C3.19891 13.6436 3.38968 13.5645 3.53033 13.4239C3.67098 13.2832 3.75 13.0925 3.75 12.8936V1.64355C3.75 1.24573 3.90804 0.864199 4.18934 0.582894C4.47064 0.30159 4.85218 0.143555 5.25 0.143555H20.25C20.6478 0.143555 21.0294 0.30159 21.3107 0.582894C21.592 0.864199 21.75 1.24573 21.75 1.64355ZM20.25 1.64355H5.25V12.8936C5.25037 13.1491 5.20693 13.4027 5.12156 13.6436H19.5C19.6989 13.6436 19.8897 13.5645 20.0303 13.4239C20.171 13.2832 20.25 13.0925 20.25 12.8936V1.64355Z" fill="#00555A"/>
</svg>
