<svg width="22" height="16" viewBox="0 0 22 16" fill="none" xmlns="http://www.w3.org/2000/svg">
<path d="M20 0.143555H2C1.60218 0.143555 1.22064 0.30159 0.93934 0.582894C0.658035 0.864199 0.5 1.24573 0.5 1.64355V13.6436C0.5 14.0414 0.658035 14.4229 0.93934 14.7042C1.22064 14.9855 1.60218 15.1436 2 15.1436H20C20.3978 15.1436 20.7794 14.9855 21.0607 14.7042C21.342 14.4229 21.5 14.0414 21.5 13.6436V1.64355C21.5 1.24573 21.342 0.864199 21.0607 0.582894C20.7794 0.30159 20.3978 0.143555 20 0.143555ZM20 1.64355V3.89355H2V1.64355H20ZM20 13.6436H2V5.39355H20V13.6436ZM18.5 11.3936C18.5 11.5925 18.421 11.7832 18.2803 11.9239C18.1397 12.0645 17.9489 12.1436 17.75 12.1436H14.75C14.5511 12.1436 14.3603 12.0645 14.2197 11.9239C14.079 11.7832 14 11.5925 14 11.3936C14 11.1946 14.079 11.0039 14.2197 10.8632C14.3603 10.7226 14.5511 10.6436 14.75 10.6436H17.75C17.9489 10.6436 18.1397 10.7226 18.2803 10.8632C18.421 11.0039 18.5 11.1946 18.5 11.3936ZM12.5 11.3936C12.5 11.5925 12.421 11.7832 12.2803 11.9239C12.1397 12.0645 11.9489 12.1436 11.75 12.1436H10.25C10.0511 12.1436 9.86032 12.0645 9.71967 11.9239C9.57902 11.7832 9.5 11.5925 9.5 11.3936C9.5 11.1946 9.57902 11.0039 9.71967 10.8632C9.86032 10.7226 10.0511 10.6436 10.25 10.6436H11.75C11.9489 10.6436 12.1397 10.7226 12.2803 10.8632C12.421 11.0039 12.5 11.1946 12.5 11.3936Z" fill="#00555A"/>
</svg>
