<svg width="24" height="22" viewBox="0 0 24 22" fill="none" xmlns="http://www.w3.org/2000/svg">
<path d="M23.6023 6.9818L12.3523 0.981799C12.2438 0.924019 12.1227 0.893799 11.9998 0.893799C11.8768 0.893799 11.7558 0.924019 11.6473 0.981799L0.397266 6.9818C0.27727 7.04575 0.176916 7.14112 0.106941 7.2577C0.036965 7.37429 0 7.5077 0 7.64367C0 7.77965 0.036965 7.91306 0.106941 8.02965C0.176916 8.14623 0.27727 8.2416 0.397266 8.30555L2.99977 9.69399V14.2334C2.99899 14.6018 3.13457 14.9574 3.38039 15.2318C4.60852 16.5996 7.36008 18.8937 11.9998 18.8937C13.5382 18.9064 15.065 18.6277 16.4998 18.0724V21.1437C16.4998 21.3426 16.5788 21.5334 16.7194 21.674C16.8601 21.8147 17.0509 21.8937 17.2498 21.8937C17.4487 21.8937 17.6394 21.8147 17.7801 21.674C17.9207 21.5334 17.9998 21.3426 17.9998 21.1437V17.3477C18.9778 16.7832 19.8616 16.0692 20.6191 15.2318C20.865 14.9574 21.0005 14.6018 20.9998 14.2334V9.69399L23.6023 8.30555C23.7223 8.2416 23.8226 8.14623 23.8926 8.02965C23.9626 7.91306 23.9995 7.77965 23.9995 7.64367C23.9995 7.5077 23.9626 7.37429 23.8926 7.2577C23.8226 7.14112 23.7223 7.04575 23.6023 6.9818ZM11.9998 17.3937C7.9432 17.3937 5.55727 15.4118 4.49977 14.2334V10.4937L11.6473 14.3055C11.7558 14.3633 11.8768 14.3935 11.9998 14.3935C12.1227 14.3935 12.2438 14.3633 12.3523 14.3055L16.4998 12.094V16.4384C15.3185 16.9896 13.8298 17.3937 11.9998 17.3937ZM19.4998 14.2296C19.0502 14.7285 18.5472 15.1765 17.9998 15.5655V11.2934L19.4998 10.4937V14.2296ZM17.6248 9.7943L17.6041 9.78211L12.3541 6.9818C12.179 6.89233 11.9757 6.87525 11.7881 6.93424C11.6004 6.99323 11.4435 7.12356 11.351 7.29716C11.2586 7.47077 11.238 7.67374 11.2938 7.86235C11.3495 8.05097 11.4771 8.21013 11.6491 8.30555L16.031 10.6437L11.9998 12.7934L2.34352 7.64367L11.9998 2.49399L21.656 7.64367L17.6248 9.7943Z" fill="#00555A"/>
</svg>
