<svg width="24" height="15" viewBox="0 0 24 15" fill="none" xmlns="http://www.w3.org/2000/svg">
<path d="M12 3.89355C11.2583 3.89355 10.5333 4.11349 9.91661 4.52554C9.29993 4.9376 8.81928 5.52327 8.53545 6.20849C8.25162 6.89371 8.17736 7.64772 8.32205 8.37514C8.46675 9.10257 8.8239 9.77076 9.34835 10.2952C9.8728 10.8197 10.541 11.1768 11.2684 11.3215C11.9958 11.4662 12.7498 11.3919 13.4351 11.1081C14.1203 10.8243 14.706 10.3436 15.118 9.72694C15.5301 9.11026 15.75 8.38523 15.75 7.64355C15.75 6.64899 15.3549 5.69517 14.6517 4.9919C13.9484 4.28864 12.9946 3.89355 12 3.89355ZM12 9.89355C11.555 9.89355 11.12 9.76159 10.75 9.51436C10.38 9.26713 10.0916 8.91573 9.92127 8.50459C9.75097 8.09346 9.70642 7.64106 9.79323 7.2046C9.88005 6.76814 10.0943 6.36723 10.409 6.05256C10.7237 5.7379 11.1246 5.5236 11.561 5.43679C11.9975 5.34997 12.4499 5.39453 12.861 5.56483C13.2722 5.73512 13.6236 6.02351 13.8708 6.39352C14.118 6.76353 14.25 7.19855 14.25 7.64355C14.25 8.24029 14.0129 8.81259 13.591 9.23454C13.169 9.6565 12.5967 9.89355 12 9.89355ZM22.5 0.893555H1.5C1.30109 0.893555 1.11032 0.972572 0.96967 1.11322C0.829018 1.25388 0.75 1.44464 0.75 1.64355V13.6436C0.75 13.8425 0.829018 14.0332 0.96967 14.1739C1.11032 14.3145 1.30109 14.3936 1.5 14.3936H22.5C22.6989 14.3936 22.8897 14.3145 23.0303 14.1739C23.171 14.0332 23.25 13.8425 23.25 13.6436V1.64355C23.25 1.44464 23.171 1.25388 23.0303 1.11322C22.8897 0.972572 22.6989 0.893555 22.5 0.893555ZM18.1547 12.8936H5.84531C5.5935 12.0419 5.13263 11.2668 4.50467 10.6389C3.87671 10.0109 3.10162 9.55005 2.25 9.29824V5.98887C3.10162 5.73706 3.87671 5.27619 4.50467 4.64823C5.13263 4.02027 5.5935 3.24518 5.84531 2.39355H18.1547C18.4065 3.24518 18.8674 4.02027 19.4953 4.64823C20.1233 5.27619 20.8984 5.73706 21.75 5.98887V9.29824C20.8984 9.55005 20.1233 10.0109 19.4953 10.6389C18.8674 11.2668 18.4065 12.0419 18.1547 12.8936ZM21.75 4.39699C20.8504 4.01017 20.1334 3.29314 19.7466 2.39355H21.75V4.39699ZM4.25344 2.39355C3.86662 3.29314 3.14959 4.01017 2.25 4.39699V2.39355H4.25344ZM2.25 10.8901C3.14959 11.2769 3.86662 11.994 4.25344 12.8936H2.25V10.8901ZM19.7466 12.8936C20.1334 11.994 20.8504 11.2769 21.75 10.8901V12.8936H19.7466Z" fill="#00555A"/>
</svg>
