<svg width="40" height="40" viewBox="0 0 40 40" fill="none" xmlns="http://www.w3.org/2000/svg">
<path d="M34.905 28.0584C33.9915 22.606 31.3809 17.5807 27.445 13.6984C26.5833 12.8601 26.1533 12.4417 25.2016 12.0551C24.25 11.6667 23.4316 11.6667 21.7966 11.6667H18.2033C16.5683 11.6667 15.75 11.6667 14.7983 12.0551C13.8483 12.4417 13.415 12.8601 12.555 13.6984C8.61906 17.5807 6.00847 22.606 5.09497 28.0584C4.2833 32.9551 8.79997 36.6667 13.8466 36.6667H26.1533C31.2016 36.6667 35.72 32.9551 34.9033 28.0584" stroke="#569B9B" stroke-width="2.5" stroke-linecap="round" stroke-linejoin="round"/>
<path d="M12.0947 7.40504C11.7497 6.90504 11.2513 6.22504 12.2813 6.07171C13.3397 5.91171 14.438 6.63504 15.5147 6.62171C16.4863 6.60671 16.9813 6.17504 17.5147 5.55837C18.0747 4.91004 18.9413 3.33337 19.9997 3.33337C21.058 3.33337 21.9247 4.91004 22.4847 5.55837C23.018 6.17504 23.513 6.60837 24.4847 6.62004C25.5613 6.63671 26.6597 5.91171 27.718 6.07004C28.748 6.22504 28.2497 6.90337 27.9047 7.40337L26.3513 9.66837C25.6847 10.635 25.353 11.1184 24.6563 11.3934C23.9597 11.6684 23.0613 11.6667 21.263 11.6667H18.7363C16.9363 11.6667 16.038 11.6667 15.343 11.3934C14.648 11.12 14.3147 10.6334 13.648 9.66671L12.0947 7.40504Z" stroke="#569B9B" stroke-width="2.5" stroke-linecap="round" stroke-linejoin="round"/>
<path d="M23.333 19.3331H20M20 19.3331H18.333C17.045 19.3331 16 20.3782 16 21.6676C16 22.9538 17.045 24 18.333 24H20M20 19.3331V18M20 19.3331V24M20 24H21.667C22.955 24 24 25.0451 24 26.3335C24 27.6218 22.955 28.6669 21.667 28.6669H20M20 24V28.6669M20 28.6669H16M20 28.6669V30" stroke="#FCFF7F" stroke-width="2" stroke-linecap="round" stroke-linejoin="round"/>
</svg>
