<svg width="24" height="24" viewBox="0 0 24 24" fill="none" xmlns="http://www.w3.org/2000/svg">
<path d="M15 3H14.25C13.8522 3 13.4706 3.15804 13.1893 3.43934C12.908 3.72064 12.75 4.10218 12.75 4.5V9.75H5.175C5.00096 8.90354 4.54041 8.14297 3.87097 7.5965C3.20154 7.05002 2.36416 6.75106 1.5 6.75C1.30109 6.75 1.11032 6.82902 0.96967 6.96967C0.829018 7.11032 0.75 7.30109 0.75 7.5C0.75 7.69891 0.829018 7.88968 0.96967 8.03033C1.11032 8.17098 1.30109 8.25 1.5 8.25C2.09674 8.25 2.66903 8.48705 3.09099 8.90901C3.51295 9.33097 3.75 9.90326 3.75 10.5C3.75223 12.4884 4.54313 14.3948 5.94917 15.8008C7.3552 17.2069 9.26156 17.9978 11.25 18H15C16.9891 18 18.8968 17.2098 20.3033 15.8033C21.7098 14.3968 22.5 12.4891 22.5 10.5C22.5 8.51088 21.7098 6.60322 20.3033 5.1967C18.8968 3.79018 16.9891 3 15 3ZM20.9513 9.75H15.6384L19.5628 6.61031C20.3228 7.49851 20.8055 8.59015 20.9513 9.75ZM15 4.5C16.2315 4.49884 17.4331 4.87907 18.4397 5.58844L14.25 8.93906V4.5H15ZM15 16.5H11.25C9.78907 16.4982 8.37883 15.9643 7.28311 14.998C6.1874 14.0317 5.48129 12.6992 5.29688 11.25H20.9531C20.7687 12.6992 20.0626 14.0317 18.9669 14.998C17.8712 15.9643 16.4609 16.4982 15 16.5ZM9.75 21C9.75 21.2967 9.66203 21.5867 9.4972 21.8334C9.33238 22.08 9.09811 22.2723 8.82403 22.3858C8.54994 22.4994 8.24834 22.5291 7.95736 22.4712C7.66639 22.4133 7.39912 22.2704 7.18934 22.0607C6.97956 21.8509 6.8367 21.5836 6.77882 21.2926C6.72094 21.0017 6.75065 20.7001 6.86418 20.426C6.97771 20.1519 7.16997 19.9176 7.41665 19.7528C7.66332 19.588 7.95333 19.5 8.25 19.5C8.64782 19.5 9.02936 19.658 9.31066 19.9393C9.59196 20.2206 9.75 20.6022 9.75 21ZM19.5 21C19.5 21.2967 19.412 21.5867 19.2472 21.8334C19.0824 22.08 18.8481 22.2723 18.574 22.3858C18.2999 22.4994 17.9983 22.5291 17.7074 22.4712C17.4164 22.4133 17.1491 22.2704 16.9393 22.0607C16.7296 21.8509 16.5867 21.5836 16.5288 21.2926C16.4709 21.0017 16.5006 20.7001 16.6142 20.426C16.7277 20.1519 16.92 19.9176 17.1666 19.7528C17.4133 19.588 17.7033 19.5 18 19.5C18.3978 19.5 18.7794 19.658 19.0607 19.9393C19.342 20.2206 19.5 20.6022 19.5 21Z" fill="#00555A"/>
</svg>
