<svg width="49" height="48" viewBox="0 0 49 48" fill="none" xmlns="http://www.w3.org/2000/svg">
<path d="M28.1543 26.7692C29.4396 26.7692 30.6722 26.2586 31.581 25.3498C32.4899 24.441 33.0004 23.2083 33.0004 21.9231M28.1543 26.7692C26.869 26.7692 25.6364 26.2586 24.7275 25.3498C23.8187 24.441 23.3081 23.2083 23.3081 21.9231M28.1543 26.7692V30.2308M33.0004 21.9231C33.0004 20.6378 32.4899 19.4051 31.581 18.4963C30.6722 17.5875 29.4396 17.0769 28.1543 17.0769M33.0004 21.9231H36.462M28.1543 17.0769C26.869 17.0769 25.6364 17.5875 24.7275 18.4963C23.8187 19.4051 23.3081 20.6378 23.3081 21.9231M28.1543 17.0769V13.6154M23.3081 21.9231H19.8466M34.0251 16.0523L31.5881 18.4892M24.7205 25.3569L22.2835 27.7938M34.0251 27.7938L31.5881 25.3569M24.7205 18.4892L22.2835 16.0523M12.9235 17.0769V26.7692M10.1543 37.8461V42M36.462 37.8461V42" stroke="#FCFF7F" stroke-width="2.5" stroke-linecap="round" stroke-linejoin="round"/>
<path d="M39.2308 6H8.76923C8.03479 6 7.33042 6.29176 6.81109 6.81109C6.29176 7.33042 6 8.03479 6 8.76923V35.0769C6 35.8114 6.29176 36.5158 6.81109 37.0351C7.33042 37.5544 8.03479 37.8462 8.76923 37.8462H39.2308C39.9652 37.8462 40.6696 37.5544 41.1889 37.0351C41.7082 36.5158 42 35.8114 42 35.0769V8.76923C42 8.03479 41.7082 7.33042 41.1889 6.81109C40.6696 6.29176 39.9652 6 39.2308 6Z" stroke="#569B9B" stroke-width="2.5" stroke-linecap="round" stroke-linejoin="round"/>
</svg>
