<svg width="36" height="36" viewBox="0 0 36 36" fill="none" xmlns="http://www.w3.org/2000/svg">
<path d="M30.75 4.5H5.75C3.67893 4.5 2 6.17893 2 8.25V30.75C2 32.8211 3.67893 34.5 5.75 34.5H30.75C32.8211 34.5 34.5 32.8211 34.5 30.75V8.25C34.5 6.17893 32.8211 4.5 30.75 4.5Z" stroke="#569B9B" stroke-width="2.5" stroke-linejoin="round"/>
<path d="M21.375 18.25C22.4105 18.25 23.25 17.4105 23.25 16.375C23.25 15.3395 22.4105 14.5 21.375 14.5C20.3395 14.5 19.5 15.3395 19.5 16.375C19.5 17.4105 20.3395 18.25 21.375 18.25Z" fill="#FCFF7F"/>
<path d="M27.625 18.25C28.6605 18.25 29.5 17.4105 29.5 16.375C29.5 15.3395 28.6605 14.5 27.625 14.5C26.5895 14.5 25.75 15.3395 25.75 16.375C25.75 17.4105 26.5895 18.25 27.625 18.25Z" fill="#FCFF7F"/>
<path d="M21.375 24.5C22.4105 24.5 23.25 23.6605 23.25 22.625C23.25 21.5895 22.4105 20.75 21.375 20.75C20.3395 20.75 19.5 21.5895 19.5 22.625C19.5 23.6605 20.3395 24.5 21.375 24.5Z" fill="#FCFF7F"/>
<path d="M27.625 24.5C28.6605 24.5 29.5 23.6605 29.5 22.625C29.5 21.5895 28.6605 20.75 27.625 20.75C26.5895 20.75 25.75 21.5895 25.75 22.625C25.75 23.6605 26.5895 24.5 27.625 24.5Z" fill="#FCFF7F"/>
<path d="M8.875 24.5C9.91053 24.5 10.75 23.6605 10.75 22.625C10.75 21.5895 9.91053 20.75 8.875 20.75C7.83947 20.75 7 21.5895 7 22.625C7 23.6605 7.83947 24.5 8.875 24.5Z" fill="#FCFF7F"/>
<path d="M15.125 24.5C16.1605 24.5 17 23.6605 17 22.625C17 21.5895 16.1605 20.75 15.125 20.75C14.0895 20.75 13.25 21.5895 13.25 22.625C13.25 23.6605 14.0895 24.5 15.125 24.5Z" fill="#FCFF7F"/>
<path d="M8.875 30.75C9.91053 30.75 10.75 29.9105 10.75 28.875C10.75 27.8395 9.91053 27 8.875 27C7.83947 27 7 27.8395 7 28.875C7 29.9105 7.83947 30.75 8.875 30.75Z" fill="#FCFF7F"/>
<path d="M15.125 30.75C16.1605 30.75 17 29.9105 17 28.875C17 27.8395 16.1605 27 15.125 27C14.0895 27 13.25 27.8395 13.25 28.875C13.25 29.9105 14.0895 30.75 15.125 30.75Z" fill="#FCFF7F"/>
<path d="M21.375 30.75C22.4105 30.75 23.25 29.9105 23.25 28.875C23.25 27.8395 22.4105 27 21.375 27C20.3395 27 19.5 27.8395 19.5 28.875C19.5 29.9105 20.3395 30.75 21.375 30.75Z" fill="#FCFF7F"/>
<path d="M8.25 2V4.5M28.25 2V4.5" stroke="#569B9B" stroke-width="2.5" stroke-linecap="round" stroke-linejoin="round"/>
<path d="M34.5 10.75H2" stroke="#569B9B" stroke-width="2.5" stroke-linejoin="round"/>
</svg>
