<svg width="49" height="48" viewBox="0 0 49 48" fill="none" xmlns="http://www.w3.org/2000/svg">
<path d="M31 15.444H24.334M24.334 15.444H21C18.424 15.444 16.334 17.36 16.334 19.724C16.334 22.082 18.424 24 21 24H24.334M24.334 15.444V13M24.334 15.444V24M24.334 24H27.668C30.244 24 32.334 25.916 32.334 28.278C32.334 30.64 30.244 32.556 27.668 32.556H24.334M24.334 24V32.556M24.334 32.556H16.334M24.334 32.556V35" stroke="#FCFF7F" stroke-width="2.5" stroke-linecap="round" stroke-linejoin="round"/>
<path d="M6.33398 18.8C6.33398 14.32 6.33398 12.08 7.20598 10.368C7.97296 8.86277 9.19675 7.63898 10.702 6.872C12.414 6 14.654 6 19.134 6H29.534C34.014 6 36.254 6 37.966 6.872C39.4712 7.63898 40.695 8.86277 41.462 10.368C42.334 12.08 42.334 14.32 42.334 18.8V29.2C42.334 33.68 42.334 35.92 41.462 37.632C40.695 39.1372 39.4712 40.361 37.966 41.128C36.254 42 34.014 42 29.534 42H19.134C14.654 42 12.414 42 10.702 41.128C9.19675 40.361 7.97296 39.1372 7.20598 37.632C6.33398 35.92 6.33398 33.68 6.33398 29.2V18.8Z" stroke="#569B9B" stroke-width="2.5" stroke-linecap="round" stroke-linejoin="round"/>
</svg>
