<svg width="48" height="48" viewBox="0 0 48 48" fill="none" xmlns="http://www.w3.org/2000/svg">
<path d="M42.2274 25.5825C41.9519 29.045 40.6882 32.3555 38.5866 35.1209C36.485 37.8862 33.6337 39.9902 30.3715 41.1828C27.1093 42.3753 23.5733 42.6064 20.1836 41.8485C16.794 41.0906 13.6931 39.3756 11.2495 36.9073C8.8058 34.4389 7.12206 31.321 6.39828 27.9239C5.67449 24.5268 5.94108 20.9933 7.16638 17.7433C8.39168 14.4932 10.5242 11.6632 13.3105 9.58947C16.0969 7.51572 19.42 6.2854 22.885 6.04468" stroke="#569B9B" stroke-width="2.5" stroke-linecap="round" stroke-linejoin="round"/>
<path d="M31.9284 27.1846C31.4243 28.4819 30.6049 29.6331 29.5441 30.5341C28.4834 31.4352 27.2147 32.0575 25.853 32.345C24.4912 32.6325 23.0793 32.576 21.7448 32.1807C20.4104 31.7853 19.1955 31.0636 18.2101 30.0807C17.2247 29.0978 16.4999 27.8849 16.1011 26.5514C15.7023 25.218 15.6422 23.8062 15.9262 22.4437C16.2101 21.0812 16.8293 19.811 17.7275 18.7479C18.6258 17.6848 19.7749 16.8624 21.0709 16.3551M24.1411 24.1423L31.1189 17.1645M31.1189 17.1645L36.7012 18.5601L42.2834 12.9778L36.7012 11.5822L35.3056 6L29.7234 11.5822L31.1189 17.1645Z" stroke="#FCFF7F" stroke-width="2.5" stroke-linecap="round" stroke-linejoin="round"/>
</svg>
