<svg width="12" height="12" viewBox="0 0 12 12" fill="none" xmlns="http://www.w3.org/2000/svg">
<path d="M10.0474 9.40931C10.1674 9.28974 10.3284 9.22033 10.4977 9.21516C10.667 9.20999 10.8319 9.26945 10.959 9.38148C11.086 9.4935 11.1656 9.64968 11.1817 9.81829C11.1978 9.98691 11.149 10.1553 11.0454 10.2893L10.9901 10.352L9.9901 11.352C9.79689 11.5452 9.56751 11.6985 9.31506 11.8031C9.0626 11.9076 8.79202 11.9615 8.51877 11.9615C8.24551 11.9615 7.97493 11.9076 7.72248 11.8031C7.47003 11.6985 7.24065 11.5452 7.04744 11.352C6.91786 11.2225 6.7453 11.1451 6.56246 11.1344C6.37962 11.1238 6.19921 11.1805 6.05544 11.294L5.9901 11.352L5.65677 11.6853C5.5368 11.8049 5.37581 11.8743 5.20651 11.8795C5.03721 11.8846 4.87229 11.8252 4.74525 11.7131C4.61821 11.6011 4.53857 11.4449 4.5225 11.2763C4.50644 11.1077 4.55516 10.9393 4.65877 10.8053L4.7141 10.7426L5.04744 10.4093C5.24065 10.2161 5.47003 10.0628 5.72248 9.95822C5.97493 9.85364 6.24551 9.79982 6.51877 9.79982C6.79202 9.79982 7.0626 9.85364 7.31506 9.95822C7.56751 10.0628 7.79689 10.2161 7.9901 10.4093C8.11968 10.5387 8.29224 10.6161 8.47508 10.6268C8.65792 10.6375 8.83832 10.5808 8.9821 10.4673L9.04743 10.4093L10.0474 9.40931ZM8.84077 0.535977C9.14528 0.226546 9.5585 0.0481423 9.99253 0.0387229C10.4266 0.0293035 10.8471 0.189611 11.1648 0.485541C11.4824 0.78147 11.6721 1.18966 11.6934 1.62327C11.7146 2.05689 11.5659 2.48169 11.2788 2.80731L11.1974 2.89398L3.4801 10.6106C3.38411 10.7067 3.26956 10.7823 3.14344 10.8326L3.04677 10.8653L1.15544 11.4033C1.04699 11.4343 0.932459 11.4373 0.822537 11.4121C0.712614 11.3868 0.610889 11.3341 0.526862 11.2588C0.442836 11.1836 0.379249 11.0883 0.342043 10.9818C0.304836 10.8753 0.295224 10.7612 0.314102 10.65L0.330769 10.5786L0.868769 8.68664C0.906087 8.55609 0.9696 8.43451 1.05544 8.32931L1.12344 8.25331L8.84077 0.535977Z" fill="#00262B"/>
</svg>
