<svg width="10" height="12" viewBox="0 0 10 12" fill="none" xmlns="http://www.w3.org/2000/svg">
<path fill-rule="evenodd" clip-rule="evenodd" d="M2.5521 0.36038C2.65346 0.141149 2.87933 0 3.1296 0H8.12059C8.58985 0 8.8958 0.4745 8.68558 0.878125L7.26592 3.6038H9.36694C9.93004 3.6038 10.2116 4.25728 9.81367 4.63929L2.33499 11.8186C1.86323 12.2715 1.07739 11.8054 1.28886 11.1982L2.88308 6.60696H0.631906C0.526634 6.60696 0.42303 6.5817 0.330505 6.5335C0.237979 6.48529 0.159465 6.41566 0.102093 6.33093C0.0447202 6.2462 0.0103074 6.14905 0.00198023 6.04831C-0.00634695 5.94756 0.0116753 5.84642 0.0544098 5.75406L2.5521 0.36038Z" fill="#00262B"/>
</svg>
